<svg xmlns="http://www.w3.org/2000/svg" viewBox="0 0 477.158 477.158" width="512" height="512"><path d="M402.719 441.314c5.091 0 10.151-2.118 13.75-5.719l55-55c3.591-3.598 5.688-8.635 5.688-13.719s-2.096-10.152-5.688-13.75L356.906 238.564l114.562-114.562c3.664-3.667 5.764-8.848 5.688-14.031-.078-4.985-2.163-9.911-5.688-13.438l-55-55c-3.599-3.601-8.659-5.688-13.75-5.688s-10.151 2.087-13.75 5.688l-183.28 183.281c-3.601 3.599-5.688 8.659-5.688 13.75s2.087 10.151 5.688 13.75l183.281 183.281c3.599 3.599 8.659 5.719 13.75 5.719zm-200 0c5.091 0 10.151-2.118 13.75-5.719l55-55c3.591-3.598 5.688-8.635 5.688-13.719s-2.096-10.152-5.688-13.75L156.906 238.564l114.562-114.562c3.664-3.667 5.764-8.848 5.688-14.031-.078-4.985-2.163-9.911-5.688-13.438l-55-55c-3.599-3.601-8.659-5.688-13.75-5.688s-10.151 2.087-13.75 5.688L5.688 224.814C2.087 228.413 0 233.473 0 238.564s2.087 10.151 5.688 13.75l183.281 183.281c3.599 3.599 8.659 5.719 13.75 5.719z" fill="#A8A4A4"/></svg>