<svg xmlns="http://www.w3.org/2000/svg" viewBox="0 0 477.159 477.159" width="512" height="512"><path d="M74.44 35.845c-5.091 0-10.151 2.118-13.75 5.719l-55 55c-3.591 3.598-5.688 8.635-5.688 13.719s2.096 10.152 5.688 13.75l114.562 114.562L5.69 353.158c-3.664 3.667-5.764 8.848-5.688 14.031.078 4.985 2.163 9.911 5.688 13.438l55 55c3.599 3.601 8.659 5.688 13.75 5.688 5.091 0 10.151-2.087 13.75-5.688l183.281-183.281c3.601-3.599 5.688-8.659 5.688-13.75s-2.087-10.151-5.688-13.75L88.189 41.564c-3.599-3.602-8.659-5.719-13.749-5.719zm200 0c-5.091 0-10.151 2.118-13.75 5.719l-55 55c-3.591 3.598-5.688 8.635-5.688 13.719s2.096 10.152 5.688 13.75l114.562 114.562L205.69 353.158c-3.664 3.667-5.764 8.848-5.688 14.031.078 4.985 2.163 9.911 5.688 13.438l55 55c3.599 3.601 8.659 5.688 13.75 5.688s10.151-2.087 13.75-5.688l183.281-183.281c3.601-3.599 5.688-8.659 5.688-13.75s-2.087-10.151-5.688-13.75L288.19 41.564c-3.6-3.602-8.659-5.719-13.75-5.719z" fill="#13b57d"/></svg>